<svg width="512" height="512" viewBox="0 0 512 512" fill="none" xmlns="http://www.w3.org/2000/svg">
<path d="M256 7.5C393.243 7.5 504.5 118.757 504.5 256C504.5 393.243 393.243 504.5 256 504.5C118.757 504.5 7.5 393.243 7.5 256C7.5 118.757 118.757 7.5 256 7.5Z" fill="#11B88D" stroke="#32D3A5" stroke-width="15"/>
<path d="M118.538 340V172.727H185.513C197.819 172.727 208.083 174.551 216.305 178.2C224.527 181.848 230.707 186.912 234.845 193.391C238.983 199.817 241.053 207.222 241.053 215.607C241.053 222.141 239.746 227.886 237.132 232.841C234.518 237.741 230.925 241.771 226.351 244.929C221.831 248.033 216.659 250.238 210.832 251.545V253.178C217.203 253.451 223.165 255.247 228.719 258.569C234.328 261.89 238.875 266.546 242.359 272.536C245.844 278.471 247.587 285.549 247.587 293.771C247.587 302.647 245.381 310.569 240.971 317.539C236.615 324.454 230.162 329.927 221.614 333.956C213.065 337.985 202.529 340 190.005 340H118.538ZM153.904 311.087H182.736C192.591 311.087 199.779 309.208 204.298 305.451C208.818 301.639 211.077 296.576 211.077 290.259C211.077 285.631 209.961 281.547 207.729 278.008C205.496 274.469 202.311 271.692 198.173 269.677C194.089 267.662 189.215 266.655 183.553 266.655H153.904V311.087ZM153.904 242.724H180.122C184.968 242.724 189.27 241.88 193.027 240.192C196.839 238.449 199.833 235.999 202.011 232.841C204.244 229.683 205.36 225.898 205.36 221.488C205.36 215.444 203.209 210.571 198.908 206.868C194.661 203.165 188.616 201.314 180.776 201.314H153.904V242.724ZM270.599 340V172.727H337.573C349.879 172.727 360.143 174.551 368.365 178.2C376.587 181.848 382.767 186.912 386.906 193.391C391.044 199.817 393.113 207.222 393.113 215.607C393.113 222.141 391.806 227.886 389.193 232.841C386.579 237.741 382.985 241.771 378.411 244.929C373.892 248.033 368.719 250.238 362.893 251.545V253.178C369.264 253.451 375.226 255.247 380.78 258.569C386.388 261.89 390.935 266.546 394.42 272.536C397.905 278.471 399.647 285.549 399.647 293.771C399.647 302.647 397.442 310.569 393.031 317.539C388.675 324.454 382.223 329.927 373.674 333.956C365.125 337.985 354.589 340 342.066 340H270.599ZM305.965 311.087H334.796C344.652 311.087 351.839 309.208 356.359 305.451C360.878 301.639 363.138 296.576 363.138 290.259C363.138 285.631 362.022 281.547 359.789 278.008C357.557 274.469 354.371 271.692 350.233 269.677C346.149 267.662 341.276 266.655 335.613 266.655H305.965V311.087ZM305.965 242.724H332.183C337.029 242.724 341.33 241.88 345.088 240.192C348.899 238.449 351.894 235.999 354.072 232.841C356.304 229.683 357.421 225.898 357.421 221.488C357.421 215.444 355.27 210.571 350.968 206.868C346.721 203.165 340.677 201.314 332.836 201.314H305.965V242.724Z" fill="white"/>
</svg>
